<?xml version="1.0" encoding="UTF-8"?>
<svg xmlns="http://www.w3.org/2000/svg" xmlns:xlink="http://www.w3.org/1999/xlink" width="600px" height="350px" viewBox="0 0 600 350" version="1.1">
<g id="surface1">
<path style=" stroke:none;fill-rule:evenodd;fill:rgb(85.490196%,0%,0%);fill-opacity:1;" d="M 0.527344 0.539062 L 599.472656 0.539062 L 599.472656 349.460938 L 0.527344 349.460938 Z M 0.527344 0.539062 "/>
<path style=" stroke:none;fill-rule:evenodd;fill:rgb(100%,100%,100%);fill-opacity:1;" d="M 0.527344 0.539062 L 599.472656 0.539062 L 599.472656 233.152344 L 0.527344 233.152344 Z M 0.527344 0.539062 "/>
<path style=" stroke:none;fill-rule:evenodd;fill:rgb(13.72549%,62.352941%,25.098039%);fill-opacity:1;" d="M 0.527344 0.539062 L 599.472656 0.539062 L 599.472656 116.847656 L 0.527344 116.847656 Z M 0.527344 0.539062 "/>
<path style="fill:none;stroke-width:5.03559;stroke-linecap:butt;stroke-linejoin:miter;stroke:rgb(100%,100%,100%);stroke-opacity:1;stroke-miterlimit:8;" d="M 15.500104 238.010603 L 80.849688 238.010603 M 18.014688 260.513951 L 18.014688 248.014509 L 38.123958 248.014509 L 38.123958 258.011161 L 58.233229 258.011161 L 58.233229 248.014509 L 45.660313 248.014509 M 25.558438 258.011161 L 30.580208 258.011161 M 80.849688 258.011161 L 68.284167 258.011161 L 68.284167 248.014509 L 88.393438 248.014509 M 88.393438 235.507812 L 88.393438 258.011161 L 108.502708 258.011161 L 108.502708 235.507812 M 98.444375 235.507812 L 98.444375 258.011161 " transform="matrix(0.528169,0,0,0.538462,0.528169,-28.538462)"/>
<path style="fill:none;stroke-width:10.0712;stroke-linecap:butt;stroke-linejoin:miter;stroke:rgb(100%,100%,100%);stroke-opacity:1;stroke-miterlimit:8;" d="M 15.004583 270.010045 L 60.474167 270.010045 M 65.525521 270.010045 L 111.0025 270.010045 M 15.004583 486.026228 L 60.474167 486.026228 M 65.525521 486.026228 L 111.0025 486.026228 " transform="matrix(0.528169,0,0,0.538462,0.528169,-28.538462)"/>
<path style="fill:none;stroke-width:5.03559;stroke-linecap:butt;stroke-linejoin:miter;stroke:rgb(100%,100%,100%);stroke-opacity:1;stroke-miterlimit:8;" d="M 15.500104 499.026228 L 80.849688 499.026228 M 18.014688 521.529576 L 18.014688 509.022879 L 38.123958 509.022879 L 38.123958 519.026786 L 58.233229 519.026786 L 58.233229 509.022879 L 45.660313 509.022879 M 25.558438 519.026786 L 30.580208 519.026786 M 80.849688 519.026786 L 68.284167 519.026786 L 68.284167 509.022879 L 88.393438 509.022879 M 88.393438 496.523438 L 88.393438 519.026786 L 108.502708 519.026786 L 108.502708 496.523438 M 98.444375 496.523438 L 98.444375 519.026786 M 116.505 238.010603 L 181.861979 238.010603 M 119.019583 260.513951 L 119.019583 248.014509 L 139.128854 248.014509 L 139.128854 258.011161 L 159.238125 258.011161 L 159.238125 248.014509 L 146.672604 248.014509 M 126.563333 258.011161 L 131.5925 258.011161 M 181.861979 258.011161 L 169.289063 258.011161 L 169.289063 248.014509 L 189.398333 248.014509 M 189.398333 235.507812 L 189.398333 258.011161 L 209.507604 258.011161 L 209.507604 235.507812 M 199.456667 235.507812 L 199.456667 258.011161 " transform="matrix(0.528169,0,0,0.538462,0.528169,-28.538462)"/>
<path style="fill:none;stroke-width:10.0712;stroke-linecap:butt;stroke-linejoin:miter;stroke:rgb(100%,100%,100%);stroke-opacity:1;stroke-miterlimit:8;" d="M 116.009479 270.010045 L 161.479063 270.010045 M 166.537813 270.010045 L 212.007396 270.010045 M 116.009479 486.026228 L 161.479063 486.026228 M 166.537813 486.026228 L 212.007396 486.026228 " transform="matrix(0.528169,0,0,0.538462,0.528169,-28.538462)"/>
<path style="fill:none;stroke-width:5.03559;stroke-linecap:butt;stroke-linejoin:miter;stroke:rgb(100%,100%,100%);stroke-opacity:1;stroke-miterlimit:8;" d="M 116.505 499.026228 L 181.861979 499.026228 M 119.019583 521.529576 L 119.019583 509.022879 L 139.128854 509.022879 L 139.128854 519.026786 L 159.238125 519.026786 L 159.238125 509.022879 L 146.672604 509.022879 M 126.563333 519.026786 L 131.5925 519.026786 M 181.861979 519.026786 L 169.289063 519.026786 L 169.289063 509.022879 L 189.398333 509.022879 M 189.398333 496.523438 L 189.398333 519.026786 L 209.507604 519.026786 L 209.507604 496.523438 M 199.456667 496.523438 L 199.456667 519.026786 M 217.509896 238.010603 L 282.866875 238.010603 M 220.024479 260.513951 L 220.024479 248.014509 L 240.13375 248.014509 L 240.13375 258.011161 L 260.243021 258.011161 L 260.243021 248.014509 L 247.6775 248.014509 M 227.568229 258.011161 L 232.597396 258.011161 M 282.866875 258.011161 L 270.293958 258.011161 L 270.293958 248.014509 L 290.403229 248.014509 M 290.403229 235.507812 L 290.403229 258.011161 L 310.5125 258.011161 L 310.5125 235.507812 M 300.461563 235.507812 L 300.461563 258.011161 " transform="matrix(0.528169,0,0,0.538462,0.528169,-28.538462)"/>
<path style="fill:none;stroke-width:10.0712;stroke-linecap:butt;stroke-linejoin:miter;stroke:rgb(100%,100%,100%);stroke-opacity:1;stroke-miterlimit:8;" d="M 217.014375 270.010045 L 262.010625 270.010045 M 267.017604 270.010045 L 312.013854 270.010045 M 217.014375 486.026228 L 262.010625 486.026228 M 267.017604 486.026228 L 312.013854 486.026228 " transform="matrix(0.528169,0,0,0.538462,0.528169,-28.538462)"/>
<path style="fill:none;stroke-width:5.03559;stroke-linecap:butt;stroke-linejoin:miter;stroke:rgb(100%,100%,100%);stroke-opacity:1;stroke-miterlimit:8;" d="M 217.509896 499.026228 L 282.866875 499.026228 M 220.024479 521.529576 L 220.024479 509.022879 L 240.13375 509.022879 L 240.13375 519.026786 L 260.243021 519.026786 L 260.243021 509.022879 L 247.6775 509.022879 M 227.568229 519.026786 L 232.597396 519.026786 M 282.866875 519.026786 L 270.293958 519.026786 L 270.293958 509.022879 L 290.403229 509.022879 M 290.403229 496.523438 L 290.403229 519.026786 L 310.5125 519.026786 L 310.5125 496.523438 M 300.461563 496.523438 L 300.461563 519.026786 M 317.516354 238.010603 L 383.575938 238.010603 M 320.060521 260.513951 L 320.060521 248.014509 L 340.384271 248.014509 L 340.384271 258.011161 L 360.708021 258.011161 L 360.708021 248.014509 L 348.009375 248.014509 M 327.685625 258.011161 L 332.766563 258.011161 M 383.575938 258.011161 L 370.869896 258.011161 L 370.869896 248.014509 L 391.193646 248.014509 M 391.193646 235.507812 L 391.193646 258.011161 L 411.517396 258.011161 L 411.517396 235.507812 M 401.355521 235.507812 L 401.355521 258.011161 " transform="matrix(0.528169,0,0,0.538462,0.528169,-28.538462)"/>
<path style="fill:none;stroke-width:10.0712;stroke-linecap:butt;stroke-linejoin:miter;stroke:rgb(100%,100%,100%);stroke-opacity:1;stroke-miterlimit:8;" d="M 317.020833 270.010045 L 362.490417 270.010045 M 367.549167 270.010045 L 413.01875 270.010045 M 317.020833 486.026228 L 362.490417 486.026228 M 367.549167 486.026228 L 413.01875 486.026228 " transform="matrix(0.528169,0,0,0.538462,0.528169,-28.538462)"/>
<path style="fill:none;stroke-width:5.03559;stroke-linecap:butt;stroke-linejoin:miter;stroke:rgb(100%,100%,100%);stroke-opacity:1;stroke-miterlimit:8;" d="M 317.516354 499.026228 L 383.575938 499.026228 M 320.060521 521.529576 L 320.060521 509.022879 L 340.384271 509.022879 L 340.384271 519.026786 L 360.708021 519.026786 L 360.708021 509.022879 L 348.009375 509.022879 M 327.685625 519.026786 L 332.766563 519.026786 M 383.575938 519.026786 L 370.869896 519.026786 L 370.869896 509.022879 L 391.193646 509.022879 M 391.193646 496.523438 L 391.193646 519.026786 L 411.517396 519.026786 L 411.517396 496.523438 M 401.355521 496.523438 L 401.355521 519.026786 M 418.528646 238.010603 L 483.878229 238.010603 M 421.035833 260.513951 L 421.035833 248.014509 L 441.145104 248.014509 L 441.145104 258.011161 L 461.254375 258.011161 L 461.254375 248.014509 L 448.688854 248.014509 M 428.579583 258.011161 L 433.60875 258.011161 M 483.878229 258.011161 L 471.305313 258.011161 L 471.305313 248.014509 L 491.414583 248.014509 M 491.414583 235.507812 L 491.414583 258.011161 L 511.523854 258.011161 L 511.523854 235.507812 M 501.472917 235.507812 L 501.472917 258.011161 " transform="matrix(0.528169,0,0,0.538462,0.528169,-28.538462)"/>
<path style="fill:none;stroke-width:10.0712;stroke-linecap:butt;stroke-linejoin:miter;stroke:rgb(100%,100%,100%);stroke-opacity:1;stroke-miterlimit:8;" d="M 418.025729 270.010045 L 463.502708 270.010045 M 468.554063 270.010045 L 514.023646 270.010045 M 418.025729 486.026228 L 463.502708 486.026228 M 468.554063 486.026228 L 514.023646 486.026228 " transform="matrix(0.528169,0,0,0.538462,0.528169,-28.538462)"/>
<path style="fill:none;stroke-width:5.03559;stroke-linecap:butt;stroke-linejoin:miter;stroke:rgb(100%,100%,100%);stroke-opacity:1;stroke-miterlimit:8;" d="M 418.528646 499.026228 L 483.878229 499.026228 M 421.035833 521.529576 L 421.035833 509.022879 L 441.145104 509.022879 L 441.145104 519.026786 L 461.254375 519.026786 L 461.254375 509.022879 L 448.688854 509.022879 M 428.579583 519.026786 L 433.60875 519.026786 M 483.878229 519.026786 L 471.305313 519.026786 L 471.305313 509.022879 L 491.414583 509.022879 M 491.414583 496.523438 L 491.414583 519.026786 L 511.523854 519.026786 L 511.523854 496.523438 M 501.472917 496.523438 L 501.472917 519.026786 M 519.533542 238.010603 L 584.883125 238.010603 M 522.048125 260.513951 L 522.048125 248.014509 L 542.15 248.014509 L 542.15 258.011161 L 562.259271 258.011161 L 562.259271 248.014509 L 549.69375 248.014509 M 529.584479 258.011161 L 534.613646 258.011161 M 584.883125 258.011161 L 572.317604 258.011161 L 572.317604 248.014509 L 592.419479 248.014509 M 592.419479 235.507812 L 592.419479 258.011161 L 612.52875 258.011161 L 612.52875 235.507812 M 602.477813 235.507812 L 602.477813 258.011161 " transform="matrix(0.528169,0,0,0.538462,0.528169,-28.538462)"/>
<path style="fill:none;stroke-width:10.0712;stroke-linecap:butt;stroke-linejoin:miter;stroke:rgb(100%,100%,100%);stroke-opacity:1;stroke-miterlimit:8;" d="M 519.030625 270.010045 L 564.507604 270.010045 M 569.558958 270.010045 L 615.028542 270.010045 M 519.030625 486.026228 L 564.507604 486.026228 M 569.558958 486.026228 L 615.028542 486.026228 " transform="matrix(0.528169,0,0,0.538462,0.528169,-28.538462)"/>
<path style="fill:none;stroke-width:5.03559;stroke-linecap:butt;stroke-linejoin:miter;stroke:rgb(100%,100%,100%);stroke-opacity:1;stroke-miterlimit:8;" d="M 519.533542 499.026228 L 584.883125 499.026228 M 522.048125 521.529576 L 522.048125 509.022879 L 542.15 509.022879 L 542.15 519.026786 L 562.259271 519.026786 L 562.259271 509.022879 L 549.69375 509.022879 M 529.584479 519.026786 L 534.613646 519.026786 M 584.883125 519.026786 L 572.317604 519.026786 L 572.317604 509.022879 L 592.419479 509.022879 M 592.419479 496.523438 L 592.419479 519.026786 L 612.52875 519.026786 L 612.52875 496.523438 M 602.477813 496.523438 L 602.477813 519.026786 M 620.538438 238.010603 L 685.888021 238.010603 M 623.053021 260.513951 L 623.053021 248.014509 L 643.162292 248.014509 L 643.162292 258.011161 L 663.264167 258.011161 L 663.264167 248.014509 L 650.698646 248.014509 M 630.589375 258.011161 L 635.618542 258.011161 M 685.888021 258.011161 L 673.3225 258.011161 L 673.3225 248.014509 L 693.431771 248.014509 M 693.431771 235.507812 L 693.431771 258.011161 L 713.533646 258.011161 L 713.533646 235.507812 M 703.482708 235.507812 L 703.482708 258.011161 " transform="matrix(0.528169,0,0,0.538462,0.528169,-28.538462)"/>
<path style="fill:none;stroke-width:10.0712;stroke-linecap:butt;stroke-linejoin:miter;stroke:rgb(100%,100%,100%);stroke-opacity:1;stroke-miterlimit:8;" d="M 620.035521 270.010045 L 665.5125 270.010045 M 670.563854 270.010045 L 716.040833 270.010045 M 620.035521 486.026228 L 665.5125 486.026228 M 670.563854 486.026228 L 716.040833 486.026228 " transform="matrix(0.528169,0,0,0.538462,0.528169,-28.538462)"/>
<path style="fill:none;stroke-width:5.03559;stroke-linecap:butt;stroke-linejoin:miter;stroke:rgb(100%,100%,100%);stroke-opacity:1;stroke-miterlimit:8;" d="M 620.538438 499.026228 L 685.888021 499.026228 M 623.053021 521.529576 L 623.053021 509.022879 L 643.162292 509.022879 L 643.162292 519.026786 L 663.264167 519.026786 L 663.264167 509.022879 L 650.698646 509.022879 M 630.589375 519.026786 L 635.618542 519.026786 M 685.888021 519.026786 L 673.3225 519.026786 L 673.3225 509.022879 L 693.431771 509.022879 M 693.431771 496.523438 L 693.431771 519.026786 L 713.533646 519.026786 L 713.533646 496.523438 M 703.482708 496.523438 L 703.482708 519.026786 M 721.543333 238.010603 L 786.892917 238.010603 M 724.057917 260.513951 L 724.057917 248.014509 L 744.167188 248.014509 L 744.167188 258.011161 L 764.276458 258.011161 L 764.276458 248.014509 L 751.703542 248.014509 M 731.594271 258.011161 L 736.623438 258.011161 M 786.892917 258.011161 L 774.327396 258.011161 L 774.327396 248.014509 L 794.436667 248.014509 M 794.436667 235.507812 L 794.436667 258.011161 L 814.545938 258.011161 L 814.545938 235.507812 M 804.487604 235.507812 L 804.487604 258.011161 " transform="matrix(0.528169,0,0,0.538462,0.528169,-28.538462)"/>
<path style="fill:none;stroke-width:10.0712;stroke-linecap:butt;stroke-linejoin:miter;stroke:rgb(100%,100%,100%);stroke-opacity:1;stroke-miterlimit:8;" d="M 721.040417 270.010045 L 766.044063 270.010045 M 771.043646 270.010045 L 816.047292 270.010045 M 721.040417 486.026228 L 766.044063 486.026228 M 771.043646 486.026228 L 816.047292 486.026228 " transform="matrix(0.528169,0,0,0.538462,0.528169,-28.538462)"/>
<path style="fill:none;stroke-width:5.03559;stroke-linecap:butt;stroke-linejoin:miter;stroke:rgb(100%,100%,100%);stroke-opacity:1;stroke-miterlimit:8;" d="M 721.543333 499.026228 L 786.892917 499.026228 M 724.057917 521.529576 L 724.057917 509.022879 L 744.167188 509.022879 L 744.167188 519.026786 L 764.276458 519.026786 L 764.276458 509.022879 L 751.703542 509.022879 M 731.594271 519.026786 L 736.623438 519.026786 M 786.892917 519.026786 L 774.327396 519.026786 L 774.327396 509.022879 L 794.436667 509.022879 M 794.436667 496.523438 L 794.436667 519.026786 L 814.545938 519.026786 L 814.545938 496.523438 M 804.487604 496.523438 L 804.487604 519.026786 M 821.549792 238.010603 L 887.601979 238.010603 M 824.086563 260.513951 L 824.086563 248.014509 L 844.410313 248.014509 L 844.410313 258.011161 L 864.741458 258.011161 L 864.741458 248.014509 L 852.035417 248.014509 M 831.711667 258.011161 L 836.792604 258.011161 M 887.601979 258.011161 L 874.903333 258.011161 L 874.903333 248.014509 L 895.227083 248.014509 M 895.227083 235.507812 L 895.227083 258.011161 L 915.550833 258.011161 L 915.550833 235.507812 M 905.388958 235.507812 L 905.388958 258.011161 " transform="matrix(0.528169,0,0,0.538462,0.528169,-28.538462)"/>
<path style="fill:none;stroke-width:10.0712;stroke-linecap:butt;stroke-linejoin:miter;stroke:rgb(100%,100%,100%);stroke-opacity:1;stroke-miterlimit:8;" d="M 821.046875 270.010045 L 866.523854 270.010045 M 871.575208 270.010045 L 917.052188 270.010045 M 821.046875 486.026228 L 866.523854 486.026228 M 871.575208 486.026228 L 917.052188 486.026228 " transform="matrix(0.528169,0,0,0.538462,0.528169,-28.538462)"/>
<path style="fill:none;stroke-width:5.03559;stroke-linecap:butt;stroke-linejoin:miter;stroke:rgb(100%,100%,100%);stroke-opacity:1;stroke-miterlimit:8;" d="M 821.549792 499.026228 L 887.601979 499.026228 M 824.086563 521.529576 L 824.086563 509.022879 L 844.410313 509.022879 L 844.410313 519.026786 L 864.741458 519.026786 L 864.741458 509.022879 L 852.035417 509.022879 M 831.711667 519.026786 L 836.792604 519.026786 M 887.601979 519.026786 L 874.903333 519.026786 L 874.903333 509.022879 L 895.227083 509.022879 M 895.227083 496.523438 L 895.227083 519.026786 L 915.550833 519.026786 L 915.550833 496.523438 M 905.388958 496.523438 L 905.388958 519.026786 M 922.554688 238.010603 L 987.904271 238.010603 M 925.069271 260.513951 L 925.069271 248.014509 L 945.178542 248.014509 L 945.178542 258.011161 L 965.280417 258.011161 L 965.280417 248.014509 L 952.714896 248.014509 M 932.605625 258.011161 L 937.634792 258.011161 M 987.904271 258.011161 L 975.33875 258.011161 L 975.33875 248.014509 L 995.448021 248.014509 M 995.448021 235.507812 L 995.448021 258.011161 L 1015.549896 258.011161 L 1015.549896 235.507812 M 1005.498958 235.507812 L 1005.498958 258.011161 " transform="matrix(0.528169,0,0,0.538462,0.528169,-28.538462)"/>
<path style="fill:none;stroke-width:10.0712;stroke-linecap:butt;stroke-linejoin:miter;stroke:rgb(100%,100%,100%);stroke-opacity:1;stroke-miterlimit:8;" d="M 922.059167 270.010045 L 967.52875 270.010045 M 972.580104 270.010045 L 1018.057083 270.010045 M 922.059167 486.026228 L 967.52875 486.026228 M 972.580104 486.026228 L 1018.057083 486.026228 " transform="matrix(0.528169,0,0,0.538462,0.528169,-28.538462)"/>
<path style="fill:none;stroke-width:5.03559;stroke-linecap:butt;stroke-linejoin:miter;stroke:rgb(100%,100%,100%);stroke-opacity:1;stroke-miterlimit:8;" d="M 922.554688 499.026228 L 987.904271 499.026228 M 925.069271 521.529576 L 925.069271 509.022879 L 945.178542 509.022879 L 945.178542 519.026786 L 965.280417 519.026786 L 965.280417 509.022879 L 952.714896 509.022879 M 932.605625 519.026786 L 937.634792 519.026786 M 987.904271 519.026786 L 975.33875 519.026786 L 975.33875 509.022879 L 995.448021 509.022879 M 995.448021 496.523438 L 995.448021 519.026786 L 1015.549896 519.026786 L 1015.549896 496.523438 M 1005.498958 496.523438 L 1005.498958 519.026786 M 1023.559583 238.010603 L 1088.909167 238.010603 M 1026.066771 260.513951 L 1026.066771 248.014509 L 1046.183438 248.014509 L 1046.183438 258.011161 L 1066.292708 258.011161 L 1066.292708 248.014509 L 1053.719792 248.014509 M 1033.610521 258.011161 L 1038.639688 258.011161 M 1088.909167 258.011161 L 1076.343646 258.011161 L 1076.343646 248.014509 L 1096.452917 248.014509 M 1096.452917 235.507812 L 1096.452917 258.011161 L 1116.562188 258.011161 L 1116.562188 235.507812 M 1106.51125 235.507812 L 1106.51125 258.011161 " transform="matrix(0.528169,0,0,0.538462,0.528169,-28.538462)"/>
<path style="fill:none;stroke-width:10.0712;stroke-linecap:butt;stroke-linejoin:miter;stroke:rgb(100%,100%,100%);stroke-opacity:1;stroke-miterlimit:8;" d="M 1023.056667 270.010045 L 1068.541042 270.010045 M 1073.592396 270.010045 L 1119.061979 270.010045 M 1023.056667 486.026228 L 1068.541042 486.026228 M 1073.592396 486.026228 L 1119.061979 486.026228 " transform="matrix(0.528169,0,0,0.538462,0.528169,-28.538462)"/>
<path style="fill:none;stroke-width:5.03559;stroke-linecap:butt;stroke-linejoin:miter;stroke:rgb(100%,100%,100%);stroke-opacity:1;stroke-miterlimit:8;" d="M 1023.559583 499.026228 L 1088.909167 499.026228 M 1026.066771 521.529576 L 1026.066771 509.022879 L 1046.183438 509.022879 L 1046.183438 519.026786 L 1066.292708 519.026786 L 1066.292708 509.022879 L 1053.719792 509.022879 M 1033.610521 519.026786 L 1038.639688 519.026786 M 1088.909167 519.026786 L 1076.343646 519.026786 L 1076.343646 509.022879 L 1096.452917 509.022879 M 1096.452917 496.523438 L 1096.452917 519.026786 L 1116.562188 519.026786 L 1116.562188 496.523438 M 1106.51125 496.523438 L 1106.51125 519.026786 " transform="matrix(0.528169,0,0,0.538462,0.528169,-28.538462)"/>
<path style=" stroke:none;fill-rule:evenodd;fill:rgb(85.490196%,0%,0%);fill-opacity:1;" d="M 276.777344 211.28125 C 297.125 218.078125 318.972656 206.632812 325.585938 185.722656 C 330.410156 170.457031 325.847656 153.707031 314.011719 143.242188 C 327.144531 163.214844 322.035156 190.351562 302.601562 203.847656 C 295.015625 209.125 285.949219 211.734375 276.777344 211.28125 "/>
<path style=" stroke:none;fill-rule:evenodd;fill:rgb(85.490196%,0%,0%);fill-opacity:1;" d="M 326.417969 203.546875 C 342.09375 194.390625 347.457031 174.117188 338.394531 158.269531 C 333.953125 150.5 326.585938 144.882812 317.976562 142.703125 C 336.921875 157.101562 340.730469 184.300781 326.488281 203.453125 L 326.417969 203.546875 M 299.945312 218.625 L 297.902344 174.941406 L 299.945312 140.546875 C 301.1875 142.402344 302.847656 143.890625 304.769531 144.878906 L 304.769531 170.554688 L 303.125 213.949219 Z M 298.960938 138.136719 L 299.820312 138.953125 C 301.792969 141.792969 305.667969 142.476562 308.472656 140.476562 C 310.824219 138.804688 311.734375 135.710938 310.667969 133.007812 C 310.066406 136.230469 306.996094 138.351562 303.8125 137.746094 C 302.136719 137.425781 300.683594 136.382812 299.820312 134.882812 "/>
<path style=" stroke:none;fill-rule:evenodd;fill:rgb(85.490196%,0%,0%);fill-opacity:1;" d="M 323.222656 211.28125 C 302.875 218.078125 281.027344 206.632812 274.414062 185.722656 C 269.589844 170.457031 274.152344 153.707031 285.992188 143.242188 C 272.855469 163.214844 277.964844 190.351562 297.398438 203.847656 C 304.984375 209.125 314.050781 211.734375 323.222656 211.28125 "/>
<path style=" stroke:none;fill-rule:evenodd;fill:rgb(85.490196%,0%,0%);fill-opacity:1;" d="M 273.585938 203.546875 C 257.910156 194.390625 252.546875 174.117188 261.605469 158.269531 C 266.050781 150.5 273.417969 144.882812 282.027344 142.703125 C 263.082031 157.101562 259.273438 184.300781 273.515625 203.453125 L 273.585938 203.546875 M 299.894531 218.625 L 302.09375 174.941406 L 299.894531 140.550781 C 298.546875 142.414062 296.761719 143.902344 294.699219 144.878906 L 294.699219 170.554688 L 296.46875 213.949219 Z M 301.039062 138.136719 L 300.179688 138.953125 C 298.207031 141.792969 294.332031 142.476562 291.527344 140.476562 C 289.175781 138.804688 288.269531 135.710938 289.332031 133.007812 C 289.933594 136.230469 293.003906 138.351562 296.1875 137.746094 C 297.863281 137.425781 299.320312 136.382812 300.179688 134.882812 "/>
</g>
</svg>
