<?xml version="1.0" encoding="UTF-8"?>
<svg xmlns="http://www.w3.org/2000/svg" xmlns:xlink="http://www.w3.org/1999/xlink" width="600px" height="350px" viewBox="0 0 600 350" version="1.1">
<g id="surface1">
<rect x="0" y="0" width="600" height="350" style="fill:rgb(100%,100%,100%);fill-opacity:1;stroke:none;"/>
<path style="fill:none;stroke-width:480;stroke-linecap:butt;stroke-linejoin:miter;stroke:rgb(80%,0%,0%);stroke-opacity:1;stroke-miterlimit:4;" d="M 480.025 240 L 13440 240 M 13440 1200 L 480.025 1200 M 480.025 2160 L 13440 2160 M 13440 3120 L 480.025 3120 " transform="matrix(0.0446429,0,0,0.0520833,0,0)"/>
<path style=" stroke:none;fill-rule:nonzero;fill:rgb(0%,0%,40%);fill-opacity:1;" d="M 0 0 L 300 0 L 300 212.5 L 0 212.5 Z M 0 0 "/>
<path style="fill:none;stroke-width:480;stroke-linecap:butt;stroke-linejoin:miter;stroke:rgb(80%,0%,0%);stroke-opacity:1;stroke-miterlimit:4;" d="M 0 4080 L 13440 4080 M 13440 5040 L 0 5040 M 0 6000 L 13440 6000 " transform="matrix(0.0446429,0,0,0.0520833,0,0)"/>
<path style=" stroke:none;fill-rule:nonzero;fill:rgb(100%,80%,0%);fill-opacity:1;" d="M 187.5 37.5 L 192.277344 75.625 L 210.757812 43.699219 L 200.847656 80.46875 L 229.375 61.042969 L 206.785156 89.167969 L 239.730469 86.09375 L 208.929688 100 L 239.730469 113.90625 L 206.785156 110.832031 L 229.375 138.957031 L 200.847656 119.53125 L 210.757812 156.300781 L 192.277344 124.375 L 187.5 162.5 L 182.722656 124.375 L 164.242188 156.300781 L 174.152344 119.53125 L 145.625 138.957031 L 168.214844 110.832031 L 135.269531 113.90625 L 166.070312 100 L 135.269531 86.09375 L 168.214844 89.167969 L 145.625 61.042969 L 174.152344 80.46875 L 164.242188 43.699219 L 182.722656 75.625 Z M 160.714844 39.0625 C 136.75 26.65625 108.625 34.867188 92.496094 58.976562 C 76.363281 83.089844 76.363281 116.910156 92.496094 141.023438 C 108.625 165.132812 136.75 173.34375 160.714844 160.9375 C 134.058594 183.25 97.28125 178.566406 75.378906 150.074219 C 53.476562 121.582031 53.476562 78.417969 75.378906 49.925781 C 97.28125 21.433594 134.058594 16.75 160.714844 39.0625 Z M 160.714844 39.0625 "/>
</g>
</svg>
