<?xml version="1.0" encoding="UTF-8"?>
<svg xmlns="http://www.w3.org/2000/svg" xmlns:xlink="http://www.w3.org/1999/xlink" width="600px" height="350px" viewBox="0 0 600 350" version="1.1">
<g id="surface1">
<rect x="0" y="0" width="600" height="350" style="fill:rgb(85.490196%,12.54902%,19.607843%);fill-opacity:1;stroke:none;"/>
<path style=" stroke:none;fill-rule:nonzero;fill:rgb(0%,40%,70.196078%);fill-opacity:1;" d="M 200 0 L 400 0 L 400 350 L 200 350 Z M 200 0 "/>
<path style=" stroke:none;fill-rule:nonzero;fill:rgb(100%,85.098039%,0%);fill-opacity:1;" d="M 45 157.5 L 70 157.5 L 70 297.5 L 45 297.5 Z M 130 157.5 L 155 157.5 L 155 297.5 L 130 297.5 Z M 75 280 L 100 297.5 L 125 280 Z M 75 262.5 L 125 262.5 L 125 274.167969 L 75 274.167969 Z M 75 157.5 L 100 175 L 125 157.5 Z M 75 180.832031 L 125 180.832031 L 125 192.5 L 75 192.5 Z M 111.875 201.863281 C 113.734375 204.8125 114.742188 208.378906 114.746094 212.039062 C 114.75 221.542969 108.148438 229.25 100 229.253906 C 93.511719 229.253906 88.253906 235.390625 88.25 242.960938 C 88.253906 250.53125 93.511719 256.664062 100 256.667969 C 113.804688 256.667969 125 243.609375 125 227.5 C 125 216.792969 119.949219 206.949219 111.875 201.863281 Z M 100 237.128906 C 102.761719 237.128906 105 239.738281 105 242.960938 C 105 246.183594 102.761719 248.792969 100 248.792969 C 97.238281 248.792969 95 246.183594 95 242.960938 C 95 239.738281 97.238281 237.128906 100 237.128906 Z M 100 237.128906 "/>
<path style=" stroke:none;fill-rule:nonzero;fill:rgb(100%,85.098039%,0%);fill-opacity:1;" d="M 88.125 253.136719 C 86.265625 250.1875 85.257812 246.621094 85.253906 242.960938 C 85.25 233.457031 91.851562 225.75 100 225.746094 C 106.488281 225.746094 111.746094 219.609375 111.75 212.039062 C 111.746094 204.46875 106.488281 198.335938 100 198.332031 C 86.195312 198.332031 75 211.390625 75 227.5 C 75 238.207031 80.050781 248.050781 88.125 253.136719 Z M 100 217.871094 C 97.238281 217.871094 95 215.261719 95 212.039062 C 95 208.816406 97.238281 206.207031 100 206.207031 C 102.761719 206.207031 105 208.816406 105 212.039062 C 105 215.261719 102.761719 217.871094 100 217.871094 Z M 72.550781 118.945312 C 72.53125 119.15625 72.515625 119.371094 72.5 119.582031 C 72.5 137.300781 84.8125 151.667969 100 151.667969 C 115.1875 151.667969 127.5 137.300781 127.5 119.582031 C 127.5 119.390625 127.5 119.195312 127.5 119 C 122.730469 131.75 111.941406 139.992188 100.019531 139.996094 C 88.089844 139.976562 77.300781 131.710938 72.546875 118.941406 Z M 72.550781 118.945312 "/>
<path style=" stroke:none;fill-rule:nonzero;fill:rgb(100%,85.098039%,0%);fill-opacity:1;" d="M 120.019531 110.832031 C 120.019531 123.71875 111.066406 134.167969 100.019531 134.167969 C 88.976562 134.167969 80.019531 123.71875 80.019531 110.832031 C 80.019531 97.945312 88.976562 87.5 100.019531 87.5 C 111.066406 87.5 120.019531 97.945312 120.019531 110.832031 Z M 120.019531 110.832031 "/>
<path style=" stroke:none;fill-rule:nonzero;fill:rgb(100%,85.098039%,0%);fill-opacity:1;" d="M 102.101562 35.007812 C 99.617188 36.324219 98.6875 38.695312 98.488281 41.058594 C 98.363281 43.046875 99.117188 45.285156 99.191406 47.230469 C 99.191406 50.578125 96.222656 51.683594 96.222656 56.460938 C 96.222656 58.101562 97.523438 59.914062 97.523438 64.175781 C 97.296875 66.410156 96.226562 66.914062 95.023438 67.089844 C 93.640625 67.089844 92.523438 65.785156 92.523438 64.175781 C 92.523438 63.425781 92.769531 62.707031 93.214844 62.167969 C 93.292969 62.0625 93.378906 61.964844 93.46875 61.875 C 94.039062 61.203125 94.820312 60.945312 94.816406 59.175781 C 94.816406 58.265625 94.3125 57.4375 93.828125 55.824219 C 93.375 54.261719 93.703125 51.648438 94.785156 50.105469 C 93.035156 50.894531 91.957031 52.851562 91.410156 54.605469 C 90.828125 56.765625 91.332031 58.007812 90.539062 59.800781 C 90.054688 60.960938 89.476562 61.445312 88.929688 62.410156 C 88.28125 63.46875 87.519531 65.9375 87.519531 67.082031 C 87.519531 75.136719 93.117188 81.667969 100.019531 81.667969 C 106.925781 81.667969 112.519531 75.136719 112.519531 67.082031 C 112.519531 65.9375 111.769531 63.46875 111.125 62.410156 C 110.574219 61.445312 109.988281 60.960938 109.503906 59.800781 C 108.71875 58.007812 109.222656 56.765625 108.644531 54.605469 C 108.09375 52.851562 107.011719 50.894531 105.265625 50.105469 C 106.347656 51.648438 106.675781 54.261719 106.222656 55.824219 C 105.738281 57.433594 105.226562 58.261719 105.226562 59.175781 C 105.226562 60.945312 106.003906 61.203125 106.574219 61.875 C 106.664062 61.964844 106.75 62.0625 106.828125 62.167969 C 107.273438 62.707031 107.519531 63.425781 107.523438 64.175781 C 107.523438 65.785156 106.402344 67.089844 105.023438 67.089844 C 103.640625 66.886719 102.648438 66.132812 102.523438 64.175781 C 102.523438 58.558594 104.582031 58.199219 104.582031 54.046875 C 104.582031 48.113281 100.019531 45.304688 100.019531 40.964844 C 100.019531 39.496094 100.316406 36.992188 102.101562 35.007812 Z M 102.101562 35.007812 "/>
</g>
</svg>
